<?xml version="1.0" encoding="UTF-8"?>
<svg width="24px" height="24px" viewBox="0 0 24 24" version="1.1" xmlns="http://www.w3.org/2000/svg" xmlns:xlink="http://www.w3.org/1999/xlink">
    <!-- Generator: Sketch 48.2 (47327) - http://www.bohemiancoding.com/sketch -->
    <title>xxxhdpi/ic_humidity</title>
    <desc>Created with Sketch.</desc>
    <defs></defs>
    <g id="Symbols" stroke="none" stroke-width="1" fill="none" fill-rule="evenodd">
        <g id="ic_humidity" fill-rule="nonzero">
            <path d="M12.5636578,1.75475896 C15.1270576,4.6701121 16.7828726,6.74174897 17.5486736,8.0000952 C20.0858027,12.1690462 20.2742587,15.94248 17.4354868,18.7511498 C14.3620517,21.7919945 9.63859402,21.7929684 6.56525183,18.7510486 C3.72406753,15.9389131 3.91529581,12.1048698 6.45485907,7.99570621 C7.22594229,6.74804793 8.88062245,4.67783086 11.4358797,1.75624524 C11.7341773,1.41518293 12.2644623,1.41448408 12.5636578,1.75475896 Z" id="Rectangle-6" fill="#B2DEF7"></path>
            <path d="M13.7364391,18.2967153 C15.3585521,17.7578634 16.4746927,16.2361832 16.4746927,14.5 C16.4746927,14.0857864 16.1389062,13.75 15.7246927,13.75 C15.3104791,13.75 14.9746927,14.0857864 14.9746927,14.5 C14.9746927,15.5851937 14.2768439,16.5365995 13.2635609,16.8732034 C12.8704689,17.0037851 12.6576623,17.4283065 12.7882441,17.8213985 C12.9188258,18.2144904 13.3433472,18.427297 13.7364391,18.2967153 Z" id="Oval" fill="#FFFFFF"></path>
        </g>
    </g>
</svg>