<?xml version="1.0" encoding="UTF-8"?>
<svg width="24px" height="24px" viewBox="0 0 24 24" version="1.1" xmlns="http://www.w3.org/2000/svg" xmlns:xlink="http://www.w3.org/1999/xlink">
    <!-- Generator: Sketch 48.2 (47327) - http://www.bohemiancoding.com/sketch -->
    <title>xxxhdpi/ic_pressure</title>
    <desc>Created with Sketch.</desc>
    <defs></defs>
    <g id="Symbols" stroke="none" stroke-width="1" fill="none" fill-rule="evenodd">
        <g id="ic_pressure">
            <path d="M12,21.5 C6.75329488,21.5 2.5,17.2467051 2.5,12 C2.5,6.75329488 6.75329488,2.5 12,2.5 C17.2467051,2.5 21.5,6.75329488 21.5,12 C21.5,17.2467051 17.2467051,21.5 12,21.5 Z" id="Oval-6" fill="#FFFFFF" fill-rule="nonzero"></path>
            <polygon id="Path-17" fill="#788393" fill-rule="nonzero" points="3 12.5 5 12.5 5 11 3 11"></polygon>
            <polygon id="Path-17" fill="#788393" fill-rule="nonzero" points="19 12.5 21 12.5 21 11 19 11"></polygon>
            <polygon id="Path-17" fill="#788393" fill-rule="nonzero" points="12.75 5 12.75 3 11.25 3 11.25 5"></polygon>
            <path d="M12,22 C6.4771525,22 2,17.5228475 2,12 C2,6.4771525 6.4771525,2 12,2 C17.5228475,2 22,6.4771525 22,12 C22,17.5228475 17.5228475,22 12,22 Z M12,20.5 C16.6944204,20.5 20.5,16.6944204 20.5,12 C20.5,7.30557963 16.6944204,3.5 12,3.5 C7.30557963,3.5 3.5,7.30557963 3.5,12 C3.5,16.6944204 7.30557963,20.5 12,20.5 Z" id="Combined-Shape" fill="#B2DEF7" fill-rule="nonzero"></path>
            <path d="M13.5303301,11.5303301 L16.5303301,8.53033009 C16.8232233,8.23743687 16.8232233,7.76256313 16.5303301,7.46966991 C16.2374369,7.1767767 15.7625631,7.1767767 15.4696699,7.46966991 L12.4696699,10.4696699 C12.1767767,10.7625631 12.1767767,11.2374369 12.4696699,11.5303301 C12.7625631,11.8232233 13.2374369,11.8232233 13.5303301,11.5303301 Z" id="Path-17" fill="#F66049" fill-rule="nonzero"></path>
            <circle id="Oval-6" fill="#788393" cx="12" cy="12" r="2"></circle>
        </g>
    </g>
</svg>